<svg aria-hidden="true" style="position: absolute; width: 0; height: 0; overflow: hidden;" version="1.1" xmlns="http://www.w3.org/2000/svg" xmlns:xlink="http://www.w3.org/1999/xlink">
<defs>
<symbol id="icon-book" viewBox="0 0 32 32">
<path d="M28 4v26h-21c-1.657 0-3-1.343-3-3s1.343-3 3-3h19v-24h-20c-2.2 0-4 1.8-4 4v24c0 2.2 1.8 4 4 4h24v-28h-2z"></path>
<path d="M7.002 26v0c-0.001 0-0.001 0-0.002 0-0.552 0-1 0.448-1 1s0.448 1 1 1c0.001 0 0.001-0 0.002-0v0h18.997v-2h-18.997z"></path>
</symbol>
<symbol id="icon-price-tag" viewBox="0 0 32 32">
<path d="M30.5 0h-12c-0.825 0-1.977 0.477-2.561 1.061l-14.879 14.879c-0.583 0.583-0.583 1.538 0 2.121l12.879 12.879c0.583 0.583 1.538 0.583 2.121 0l14.879-14.879c0.583-0.583 1.061-1.736 1.061-2.561v-12c0-0.825-0.675-1.5-1.5-1.5zM23 12c-1.657 0-3-1.343-3-3s1.343-3 3-3 3 1.343 3 3-1.343 3-3 3z"></path>
</symbol>
</defs>
</svg>
