<svg version="1" xmlns="http://www.w3.org/2000/svg" width="933.333" height="933.333" viewBox="0 0 700.000000 700.000000"><path d="M418.3 20c-7.1 2.8-14.6 9.8-18 16.8-2.4 5-2.8 6.9-2.8 14.7 0 14.6 3.2 19.4 23.2 34.7 6.6 5.1 19.7 15.1 29 22.2 9.2 7.1 17.1 13.2 17.5 13.5.4.3-4.5 11.2-10.9 24.1-10.1 20.6-11.5 24.1-11.5 28.6 0 2.8.5 6.2 1.2 7.5 1.7 3.2 8.6 9.8 14.6 13.8 4.4 2.9 5.4 3.2 9.8 2.7 6.3-.7 6.3-.7 38.2-42.5.9-1.2 1.8-.9 5.5 2 2.4 1.9 4.6 3.6 4.9 3.9.3.3 3.2 2.7 6.6 5.2l6 4.6 9.5 23.2c8.7 21.5 9.7 23.5 13.2 25.8 7.2 4.8 16.2 2.5 19.7-5.1 1.1-2.3 4.7-12.8 8-23.4l6.1-19.2 19.9-12.7c18.5-11.8 20-13 21.5-16.9 2.1-5.3.8-10.9-3.3-14.8-2.8-2.6-6.6-3.7-18.2-5.1-2.5-.3-11.5-1.5-20-2.7l-15.5-2.2-10.7-8.1c-6-4.5-10.5-8.7-10.3-9.4.2-.6 6.4-9 13.8-18.5 18.1-23.4 17.9-23.2 17.9-27.9-.1-5.6-2-8.4-10-14.6-8.8-6.9-16.7-8.6-23.5-5.1-1.8 1-10.5 7.9-14.3 11.4-.6.5-3.7 3.3-7 6.1-3.2 2.8-8.8 7.7-12.4 10.8-3.6 3.1-6.8 5.6-7.3 5.6-.7 0-28.8-21.3-32.3-24.5-.7-.5-2.3-1.8-3.8-2.9-1.4-1-7.4-5.6-13.3-10.2-14.1-10.9-17.7-12.6-27.8-13.1-6.3-.2-9.1.1-13.2 1.7zM340 53.1c-4.1.3-8.2.8-9 1.2-2.5 1.2-4 4.5-4.5 9.8-.4 4.6-.1 5.4 2.5 8l2.8 2.9h14.4c7.9.1 19.3.3 25.3.6 12 .5 13 .2 15.7-5 1.2-2.2 1.3-3.9.5-7.5-1.1-5.3-2.2-7-5.4-8.2-4.2-1.6-30.4-2.7-42.3-1.8zM270 63c-10.5 2.8-31.8 9.9-36.1 12.1-6 3-8.5 13.4-4.4 17.9 3.8 4.3 5.9 4.3 16.9.5 5.5-2 10.8-3.8 11.6-4 .8-.2 1.5-.4 1.5-.5 0-.1.7-.3 1.5-.5 4.3-.9 17.9-4.9 20.7-6.1 3.1-1.3 6.1-5.6 5.7-8.2-.1-.6-.2-2.5-.3-4.1-.1-3.6-3.7-7.8-7.1-8.5-1.4-.3-5.9.4-10 1.4zM175.5 105.8c-13.1 8.8-29.2 21.4-32 25.1-1.1 1.5-1.8 4.2-1.9 7.8-.1 4.8.2 5.7 2.7 7.9 4.1 3.6 11.2 2.8 14.7-1.6.6-.8 17.7-14.1 21-16.3 10.7-7.2 12.8-8.9 13.6-10.9.6-1.3.9-3 .9-3.8-.1-.8-.3-2.8-.3-4.3-.3-3.9-5.2-8.7-8.9-8.7-1.7 0-5.6 2-9.8 4.8zM107 169.7c-2.7.8-17.9 21.7-26.1 35.8-3.8 6.5-5 14.6-2.7 17.6 3.2 4 9.8 5.1 13.4 2.1 1.8-1.5 7.4-9.5 7.4-10.6 0-.7 10.8-16.4 15.9-23.1 4.1-5.4 4.6-6.5 4.4-10.9 0-2.7-.7-5.9-1.3-7.1-1.9-3.6-6.5-5.2-11-3.8zM337.7 173.6c-.1.1-3.6.5-7.7.8-6.1.6-20.2 3-29.1 5.1-2.3.5-16.7 5.1-21.9 7-6.4 2.3-26.6 12.5-33.6 17-48.7 31.1-82.7 83.1-90 138-.3 2.2-.8 5.1-1 6.5-1.1 5.8-1 35.2.1 44.5 1.4 11.1 2.5 17.7 3.1 18.6.2.4.6 2.4 1 4.5 2 12.5 15.3 44.4 24.6 58.9 4.1 6.5 13.2 18.9 17.2 23.4 7.9 9.2 23.6 23.7 33 30.5 8.4 6.2 28.6 18.6 30.1 18.6.2 0 3.2 1.3 6.7 2.9 3.5 1.6 7.9 3.4 9.8 4.1 1.9.7 4.4 1.6 5.5 2.1 4.7 1.9 16.7 5 33 8.5 9.4 1.9 42.6 2.6 54 1.1 11.4-1.6 13-1.8 21.5-3.8 35.1-8.1 68.4-26.4 94.1-51.9 5.2-5.2 11.3-11.8 13.5-14.5 2.1-2.8 4.2-5.2 4.5-5.5 2.5-2.1 15.2-22.9 20.4-33.5 14.1-28.7 19.9-54.1 19.9-86.5 0-19.2-1.3-30-5.6-47.5-9.2-37.6-30.9-73.4-59.9-99-9.5-8.4-11.3-9.8-21.3-16.5-21.2-14.3-49.3-26-71.5-29.9-10.4-1.9-11.3-2-17.5-2.7-5.4-.6-32.4-1.3-32.9-.8z"/><path d="M596.4 180.8c-3.6.5-6.4 4.5-7.1 10-.6 5.1-.5 5.2 7.4 17.4 4.4 6.8 10.2 16.2 12.8 21 5.8 10.4 9.4 12.6 15.9 9.7 3.7-1.7 5.5-6.1 4.5-11.4-1-5.1-8.2-18.4-18.5-34-7.4-11.2-10.1-13.5-15-12.7zM57.1 259.7c-2 1.6-3.6 4.2-4.7 7.6-6.2 20.2-10.4 37.7-10.7 44-.1 4.4.2 5.2 3.1 7.8 5.6 5 13.2 2.5 15.1-5 .5-2 2.1-8.7 3.6-15 1.5-6.3 3.9-15 5.4-19.5 2.1-6.5 2.5-9 1.9-12.5-1.4-8.4-8-11.9-13.7-7.4zM639.3 272.5c-5.4 2.3-7.3 9.5-4.8 18.5 1.8 6.5 5.1 21 6 26 2.2 13.4 2.6 14.6 5 16.7 3.8 3.4 8.9 3.1 12.7-.7 2.9-2.9 3-3.4 2.5-8.8-.8-7.3-3.3-20.6-5.9-30.7-1.1-4.4-2.2-9.1-2.5-10.5-1.5-8.5-7.1-13-13-10.5zM42.5 358c-1.1.4-2.9 1.8-4 3-1.8 2-2 3.6-2 15.9 0 12.5.5 21.4 2.1 34.6 1.1 8.9 6.7 13.3 13.5 10.5 5.3-2.2 6.5-7.8 4.4-20.5-.3-1.7-.8-8.2-1.1-14.5-.8-20.1-1.4-23.9-3.7-26.5-2.4-2.7-6.1-3.7-9.2-2.5zM651.3 358.1c-4.5 1.7-5.4 4.8-6.4 22.6-.5 9.2-1.3 20.6-1.9 25.2-.7 6.5-.6 9 .4 11.5 1.6 3.8 6.3 6.2 10.2 5.2 3.7-1 7.4-5 7.5-8.3 0-1.5.2-3.7.5-4.8 1-5.1 1.9-19.3 1.9-32.2 0-13.9-.1-14.3-2.5-16.7-2.8-2.8-6.4-3.8-9.7-2.5zM56.7 459c-2.5 2-4 6.2-3.9 11 .1 6.1 16.3 42.8 20.5 46.9 4 3.7 11.2 2.7 13.7-1.8 2.6-5 1.7-9.5-4.8-23.1-2.2-4.7-5.9-13.5-8.2-19.5-2.4-6.1-5.4-12-6.7-13.3-3-2.7-7.2-2.8-10.6-.2zM632.7 459.2c-1.4 1.3-4.1 6.7-6.2 12.3-2.1 5.5-6.2 15-9 21.2-6.1 12.9-7.1 17.8-4.4 22.3 1 1.6 2 3 2.1 3 .2 0 1.7.4 3.4.9 5.8 1.6 8.6-.8 14.2-12.2 2.7-5.6 7.1-15.6 9.7-22.2 4.2-10.7 4.7-12.6 4.2-17.5-.7-6.3-3.8-10-8.7-10-1.6 0-4 1-5.3 2.2zM105.1 547.7c-2.1 1.7-4 7.4-4.1 11.8 0 2.7 11.8 17.3 24.3 29.9 8.9 9 10.7 10.3 13.9 10.4 5.4.4 9.1-3.1 9.4-8.9.3-6.4-1.1-8.8-10.7-18.6-4.7-4.9-11.2-12-14.3-15.8-7.6-9.2-9.2-10.5-13.1-10.5-1.8 0-4.3.8-5.4 1.7zM584.8 547.2c-.9.7-4 4.2-6.9 7.7-2.9 3.6-9.6 11-14.9 16.5-10.9 11.3-11.6 12.4-11.9 18.4-.2 3.5.2 4.7 2.7 7.2 3.4 3.3 6.7 3.8 11 1.6 3.1-1.6 20.5-19.9 28.2-29.5 5.2-6.6 6.3-9.1 5.6-12.6-.3-1.1-.5-2.8-.5-3.8-.1-1-1.2-2.9-2.6-4.2-2.7-2.8-8-3.4-10.7-1.3zM180.7 615.1c-4.2 2.5-6 12-3.1 16.4 2.7 4.2 40.9 25.5 45.7 25.5 3.2 0 7.6-3.2 8.7-6.4 1-3 .5-8.6-1.1-11.8-.5-.9-8-5.3-16.6-9.8-8.7-4.5-15.9-8.6-16.1-9.1-.2-.5-.8-.9-1.3-.9-.6 0-2.7-1.1-4.7-2.5-3.9-2.6-8.4-3.2-11.5-1.4zM503 619.3c-4.7 2.9-13.7 7.9-20 11.1-6.3 3.2-12.2 6.6-13.1 7.7-.9 1-2 3.9-2.3 6.4-.9 5.4 1.3 9.8 5.5 11.6 3.6 1.4 7.2.3 21.7-7.2 16.4-8.6 26.5-15.2 28-18.3 1.9-3.9.7-11.2-2.3-14.2-3.8-3.8-7.7-3.1-17.5 2.9zM276 654c-3.5.8-7 6.4-7 11.2 0 4.9 1.3 7.4 4.8 9.2 2.7 1.4 25.8 6.2 34.2 7.1 2.5.3 6.5.7 9 1.1 2.5.3 5.7.1 7.2-.5 5.7-2.2 7.6-9.5 4.2-16.6-1.7-3.7-2.5-4.1-9.4-5-4.7-.6-10.4-1.3-15.5-2.1-5.8-.9-19-3.4-22-4.2-1.6-.5-4.1-.6-5.5-.2zM418.5 654.2c-1.6.4-4.3 1-6 1.2-1.6.3-6.1 1.2-10 2-3.8.8-9.7 1.7-13 2.1-3.3.3-7.8.8-10 1.1-6.9.7-10.4 6.2-9.5 14.9.3 3.7 4.6 6.9 9.2 7.1 7.5.3 42.2-5.8 47-8.2 3.8-2 5.1-4.9 4.6-10.6-.8-7.7-5.5-11.5-12.3-9.6z"/></svg>